<svg xmlns="http://www.w3.org/2000/svg" xmlns:xlink="http://www.w3.org/1999/xlink" width="500" zoomAndPan="magnify" viewBox="0 0 375 374.999991" height="500" preserveAspectRatio="xMidYMid meet" version="1.2"><defs><clipPath id="e3e98bc628"><path d="M 5 70 L 72.75 70 L 72.75 153 L 5 153 Z M 5 70 "/></clipPath><clipPath id="dfd3d7c718"><path d="M 313.355469 83 L 371 83 L 371 154 L 313.355469 154 Z M 313.355469 83 "/></clipPath><clipPath id="d806e2d543"><path d="M 72.871094 36 L 313.351562 36 L 313.351562 261 L 72.871094 261 Z M 72.871094 36 "/></clipPath><clipPath id="899d210843"><path d="M 81 240 L 141 240 L 141 329 L 81 329 Z M 81 240 "/></clipPath><clipPath id="b12624213f"><path d="M 90.8125 240.890625 L 149.625 248.070312 L 138.902344 335.917969 L 80.089844 328.738281 Z M 90.8125 240.890625 "/></clipPath><clipPath id="162185c099"><path d="M 92.671875 225.648438 L 205.089844 239.371094 L 192.457031 342.851562 L 80.042969 329.128906 Z M 92.671875 225.648438 "/></clipPath><clipPath id="d5ba3930db"><path d="M 92.671875 225.648438 L 205.089844 239.371094 L 192.457031 342.851562 L 80.042969 329.128906 Z M 92.671875 225.648438 "/></clipPath><clipPath id="6be20a0091"><path d="M 142 240 L 150 240 L 150 336 L 142 336 Z M 142 240 "/></clipPath><clipPath id="23c526fde7"><path d="M 90.8125 240.890625 L 149.625 248.070312 L 138.902344 335.917969 L 80.089844 328.738281 Z M 90.8125 240.890625 "/></clipPath><clipPath id="b8383e2055"><path d="M 92.671875 225.648438 L 205.089844 239.371094 L 192.457031 342.851562 L 80.042969 329.128906 Z M 92.671875 225.648438 "/></clipPath><clipPath id="36bd545a0e"><path d="M 92.671875 225.648438 L 205.089844 239.371094 L 192.457031 342.851562 L 80.042969 329.128906 Z M 92.671875 225.648438 "/></clipPath><clipPath id="2bfcbf8bed"><path d="M 242 237 L 310 237 L 310 328 L 242 328 Z M 242 237 "/></clipPath><clipPath id="2aeeaa5d8b"><path d="M 230.339844 255.117188 L 286.820312 237.21875 L 313.558594 321.582031 L 257.074219 339.484375 Z M 230.339844 255.117188 "/></clipPath><clipPath id="5f7b39fb8d"><path d="M 281.921875 222.660156 L 173.964844 256.875 L 205.460938 356.253906 L 313.417969 322.039062 Z M 281.921875 222.660156 "/></clipPath><clipPath id="20a0d3a40d"><path d="M 281.921875 222.660156 L 173.964844 256.875 L 205.460938 356.253906 L 313.417969 322.039062 Z M 281.921875 222.660156 "/></clipPath><clipPath id="133931db83"><path d="M 230 248 L 252 248 L 252 340 L 230 340 Z M 230 248 "/></clipPath><clipPath id="37e02c0bdc"><path d="M 230.339844 255.117188 L 286.820312 237.21875 L 313.558594 321.582031 L 257.074219 339.484375 Z M 230.339844 255.117188 "/></clipPath><clipPath id="6a89936654"><path d="M 281.921875 222.660156 L 173.964844 256.875 L 205.460938 356.253906 L 313.417969 322.039062 Z M 281.921875 222.660156 "/></clipPath><clipPath id="b004741a8b"><path d="M 281.921875 222.660156 L 173.964844 256.875 L 205.460938 356.253906 L 313.417969 322.039062 Z M 281.921875 222.660156 "/></clipPath><clipPath id="4bf76f84af"><path d="M 90.578125 148.398438 L 107.769531 148.398438 L 107.769531 165.589844 L 90.578125 165.589844 Z M 90.578125 148.398438 "/></clipPath><clipPath id="4fa143ef23"><path d="M 99.171875 148.398438 C 94.425781 148.398438 90.578125 152.246094 90.578125 156.992188 C 90.578125 161.738281 94.425781 165.589844 99.171875 165.589844 C 103.921875 165.589844 107.769531 161.738281 107.769531 156.992188 C 107.769531 152.246094 103.921875 148.398438 99.171875 148.398438 Z M 99.171875 148.398438 "/></clipPath><clipPath id="64770a8dad"><path d="M 196.292969 156.3125 L 213.484375 156.3125 L 213.484375 173.503906 L 196.292969 173.503906 Z M 196.292969 156.3125 "/></clipPath><clipPath id="cdd8201c73"><path d="M 204.886719 156.3125 C 200.140625 156.3125 196.292969 160.160156 196.292969 164.90625 C 196.292969 169.65625 200.140625 173.503906 204.886719 173.503906 C 209.636719 173.503906 213.484375 169.65625 213.484375 164.90625 C 213.484375 160.160156 209.636719 156.3125 204.886719 156.3125 Z M 204.886719 156.3125 "/></clipPath><clipPath id="b5601c5166"><path d="M 126 164 L 173 164 L 173 183 L 126 183 Z M 126 164 "/></clipPath><clipPath id="b0aaca4c43"><path d="M 107.671875 160.835938 L 192.820312 168.613281 L 191.179688 186.539062 L 106.035156 178.757812 Z M 107.671875 160.835938 "/></clipPath><clipPath id="35a1323296"><path d="M 110.542969 129.433594 L 195.6875 137.210938 L 191.183594 186.507812 L 106.039062 178.730469 Z M 110.542969 129.433594 "/></clipPath><clipPath id="4668fea0dc"><path d="M 110.542969 129.433594 L 195.6875 137.210938 L 191.183594 186.507812 L 106.039062 178.730469 Z M 110.542969 129.433594 "/></clipPath><clipPath id="673143167e"><path d="M 127.21875 164.09375 L 173.007812 168.277344 L 171.507812 184.710938 L 125.714844 180.527344 Z M 127.21875 164.09375 "/></clipPath><clipPath id="c3e09d4a9a"><path d="M 166.839844 169.253906 C 167.949219 167.804688 170.011719 167.539062 171.441406 168.652344 C 172.886719 169.769531 173.148438 171.835938 172.035156 173.277344 C 166.964844 179.867188 158.015625 183.476562 148.613281 182.617188 C 139.207031 181.757812 131.0625 176.585938 127.265625 169.1875 C 126.4375 167.570312 127.066406 165.582031 128.691406 164.746094 C 130.300781 163.910156 132.277344 164.542969 133.109375 166.171875 C 135.84375 171.496094 141.980469 175.382812 149.210938 176.046875 C 156.445312 176.707031 163.183594 173.996094 166.839844 169.253906 Z M 166.839844 169.253906 "/></clipPath></defs><g id="432d6585a2"><rect x="0" width="375" y="0" height="374.999991" style="fill:#ffffff;fill-opacity:1;stroke:none;"/><rect x="0" width="375" y="0" height="374.999991" style="fill:#ffffff;fill-opacity:1;stroke:none;"/><g clip-rule="nonzero" clip-path="url(#e3e98bc628)"><path style=" stroke:none;fill-rule:nonzero;fill:#ffffff;fill-opacity:1;" d="M 14.511719 115.679688 C 17.914062 116.480469 21.457031 116.152344 24.65625 114.816406 C 25.125 116.792969 26.074219 118.671875 27.601562 120.042969 C 29.054688 121.351562 30.941406 122.277344 32.855469 122.800781 C 32.601562 124.910156 33.664062 126.976562 35.5 128.234375 C 37.914062 129.890625 40.988281 129.535156 43.660156 128.628906 C 46.886719 134.574219 51.507812 139.847656 56.664062 144.171875 C 61.332031 148.082031 66.910156 151.808594 73.09375 152.535156 C 73.484375 152.578125 73.925781 152.28125 74.105469 151.953125 C 76.160156 148.246094 78.214844 144.539062 80.269531 140.832031 C 80.609375 140.21875 80.335938 139.253906 79.570312 139.109375 C 68.914062 137.109375 60.542969 130.003906 54.941406 120.96875 C 56.527344 119.191406 57.878906 117.09375 57.949219 114.765625 C 58.023438 112.28125 56.203125 109.972656 53.921875 109.8125 C 54.832031 106.457031 54.511719 102.898438 52.902344 99.769531 C 57.355469 95.265625 61.011719 86.78125 54.832031 82.179688 C 52.097656 80.144531 48.574219 80.558594 45.957031 82.582031 C 44.679688 83.574219 43.738281 84.824219 43 86.199219 C 42.8125 84.542969 42.46875 82.898438 41.972656 81.300781 C 40.976562 78.09375 39.398438 74.707031 37.039062 72.273438 C 34.878906 70.046875 31.503906 69.070312 29.09375 71.519531 C 26.894531 73.757812 26.40625 77.464844 26.292969 80.457031 C 26.199219 83.074219 26.554688 85.671875 27.3125 88.160156 C 25.503906 86.515625 23.808594 84.734375 21.851562 83.261719 C 19.1875 81.265625 15.671875 79.675781 12.285156 80.507812 C 4.878906 82.324219 8.886719 91.886719 11.769531 95.835938 C 12.632812 97.015625 13.597656 98.113281 14.65625 99.097656 C 12.800781 98.945312 10.957031 99.15625 9.183594 100.019531 C 5.6875 101.734375 4.324219 105.632812 5.820312 109.203125 C 7.28125 112.691406 10.96875 114.847656 14.511719 115.679688 Z M 14.511719 115.679688 "/><path style=" stroke:none;fill-rule:nonzero;fill:#000000;fill-opacity:1;" d="M 14.511719 115.683594 C 17.914062 116.480469 21.457031 116.152344 24.65625 114.820312 C 25.125 116.796875 26.074219 118.671875 27.601562 120.046875 C 29.054688 121.355469 30.941406 122.28125 32.855469 122.804688 C 32.601562 124.914062 33.664062 126.976562 35.5 128.242188 C 37.914062 129.894531 40.988281 129.535156 43.65625 128.632812 C 46.886719 134.578125 51.503906 139.847656 56.664062 144.175781 C 61.332031 148.085938 66.90625 151.8125 73.09375 152.539062 C 74.585938 152.714844 74.574219 150.367188 73.09375 150.191406 C 67.375 149.523438 62.015625 145.699219 57.773438 142.050781 C 53.066406 138 48.859375 133.199219 45.839844 127.746094 C 48.460938 126.539062 50.878906 124.910156 52.996094 122.9375 C 53.082031 122.859375 53.167969 122.777344 53.253906 122.695312 C 59.148438 131.964844 67.933594 139.3125 78.945312 141.375 C 80.417969 141.652344 81.050781 139.390625 79.570312 139.113281 C 68.914062 137.117188 60.542969 130.007812 54.9375 120.972656 C 56.523438 119.199219 57.875 117.101562 57.949219 114.773438 C 58.023438 112.285156 56.203125 109.980469 53.917969 109.820312 C 54.832031 106.464844 54.511719 102.90625 52.898438 99.777344 C 57.351562 95.273438 61.007812 86.785156 54.832031 82.1875 C 52.097656 80.148438 48.574219 80.566406 45.957031 82.59375 C 44.679688 83.582031 43.738281 84.832031 43 86.210938 C 42.8125 84.546875 42.46875 82.90625 41.972656 81.308594 C 40.976562 78.105469 39.398438 74.714844 37.039062 72.28125 C 34.878906 70.054688 31.503906 69.078125 29.09375 71.527344 C 26.890625 73.765625 26.40625 77.472656 26.292969 80.464844 C 26.199219 83.082031 26.554688 85.679688 27.3125 88.167969 C 25.503906 86.523438 23.808594 84.742188 21.851562 83.269531 C 19.1875 81.273438 15.671875 79.683594 12.285156 80.511719 C 4.878906 82.328125 8.886719 91.890625 11.769531 95.84375 C 12.632812 97.023438 13.597656 98.117188 14.65625 99.105469 C 12.804688 98.953125 10.957031 99.160156 9.183594 100.027344 C 5.6875 101.738281 4.324219 105.640625 5.820312 109.207031 C 7.28125 112.699219 10.96875 114.855469 14.511719 115.6875 Z M 10.707031 101.898438 C 13.808594 100.644531 17.226562 101.839844 20.226562 102.828125 C 20.914062 103.054688 21.414062 102.648438 21.589844 102.117188 C 21.847656 101.621094 21.78125 100.992188 21.128906 100.683594 C 17.996094 99.214844 15.335938 96.933594 13.386719 94.074219 C 11.730469 91.644531 9.519531 87.800781 10.617188 84.75 C 12.050781 80.75 17.71875 83.222656 20.03125 84.824219 C 23.300781 87.09375 25.769531 90.3125 29.074219 92.550781 C 29.234375 92.660156 29.398438 92.71875 29.550781 92.742188 C 30.390625 93.003906 31.496094 92.054688 30.964844 91.011719 C 29.242188 87.625 28.445312 83.851562 28.65625 80.058594 C 28.78125 77.765625 29.453125 71.703125 33.027344 72.429688 C 34.707031 72.773438 35.941406 74.445312 36.824219 75.789062 C 37.847656 77.355469 38.703125 79.039062 39.335938 80.800781 C 40.609375 84.320312 41.0625 88.03125 40.730469 91.757812 C 40.683594 92.257812 40.914062 92.589844 41.246094 92.753906 C 41.804688 93.324219 42.972656 93.3125 43.246094 92.304688 C 43.964844 89.671875 44.785156 86.832031 46.832031 84.898438 C 48.738281 83.101562 51.53125 82.460938 53.675781 84.234375 C 58.535156 88.253906 54.140625 95.496094 50.605469 98.71875 C 50.269531 99.027344 50.1875 99.394531 50.265625 99.726562 C 50.289062 99.859375 50.339844 100 50.425781 100.140625 C 52.304688 103.25 52.679688 107.144531 51.25 110.515625 C 51.144531 110.761719 51.125 111 51.164062 111.222656 C 51.144531 112.023438 52 112.859375 52.925781 112.347656 C 54.113281 111.695312 55.292969 112.734375 55.542969 113.894531 C 55.847656 115.335938 55.152344 116.734375 54.351562 117.882812 C 53.835938 118.625 53.261719 119.335938 52.644531 120.003906 C 52.605469 120.039062 52.570312 120.078125 52.539062 120.117188 C 51.179688 121.5625 49.613281 122.835938 47.980469 123.898438 C 46.789062 124.671875 45.464844 125.441406 44.078125 126.027344 C 43.9375 126.054688 43.800781 126.109375 43.679688 126.183594 C 42.40625 126.683594 41.085938 127.011719 39.769531 127.039062 C 38.390625 127.066406 37.054688 126.707031 36.097656 125.675781 C 35.339844 124.855469 34.804688 123.609375 35.269531 122.515625 C 35.328125 122.378906 35.359375 122.25 35.371094 122.117188 C 35.519531 121.554688 35.300781 120.933594 34.570312 120.792969 C 34.496094 120.777344 34.421875 120.761719 34.351562 120.746094 C 34.324219 120.738281 34.300781 120.734375 34.269531 120.730469 C 30.390625 119.894531 27.152344 117.363281 26.71875 113.179688 C 26.625 112.238281 25.652344 111.886719 24.992188 112.132812 C 24.871094 112.15625 24.75 112.191406 24.628906 112.257812 C 21.894531 113.648438 18.710938 114.121094 15.691406 113.535156 C 12.871094 112.984375 9.816406 111.566406 8.3125 108.988281 C 6.699219 106.21875 7.753906 103.085938 10.703125 101.894531 Z M 10.707031 101.898438 "/></g><path style=" stroke:none;fill-rule:nonzero;fill:#000000;fill-opacity:1;" d="M 31.074219 104.511719 C 34.558594 104.679688 37.796875 106.523438 39.710938 109.445312 C 40.535156 110.699219 42.566406 109.527344 41.734375 108.257812 C 39.347656 104.621094 35.417969 102.375 31.074219 102.164062 C 29.566406 102.09375 29.570312 104.4375 31.074219 104.511719 Z M 31.074219 104.511719 "/><path style=" stroke:none;fill-rule:nonzero;fill:#000000;fill-opacity:1;" d="M 41.371094 121.257812 C 43.53125 120.425781 45.414062 119.113281 46.839844 117.273438 C 47.757812 116.097656 46.109375 114.425781 45.183594 115.617188 C 44.015625 117.121094 42.53125 118.308594 40.746094 118.996094 C 39.355469 119.535156 39.960938 121.804688 41.371094 121.257812 Z M 41.371094 121.257812 "/><g clip-rule="nonzero" clip-path="url(#dfd3d7c718)"><path style=" stroke:none;fill-rule:nonzero;fill:#ffffff;fill-opacity:1;" d="M 362.695312 121.992188 C 359.808594 122.671875 356.804688 122.390625 354.09375 121.261719 C 353.695312 122.9375 352.890625 124.527344 351.597656 125.6875 C 350.367188 126.792969 348.765625 127.582031 347.144531 128.023438 C 347.359375 129.8125 346.457031 131.558594 344.902344 132.625 C 342.859375 134.027344 340.25 133.722656 337.984375 132.957031 C 335.25 137.992188 331.335938 142.457031 326.960938 146.117188 C 323.003906 149.429688 318.277344 152.585938 313.035156 153.199219 C 312.703125 153.238281 312.332031 152.988281 312.175781 152.707031 C 310.4375 149.570312 308.695312 146.429688 306.953125 143.292969 C 306.667969 142.769531 306.898438 141.953125 307.546875 141.832031 C 316.578125 140.140625 323.675781 134.121094 328.421875 126.472656 C 327.078125 124.96875 325.933594 123.191406 325.875 121.21875 C 325.808594 119.113281 327.355469 117.160156 329.285156 117.027344 C 328.515625 114.183594 328.785156 111.171875 330.152344 108.523438 C 326.378906 104.707031 323.277344 97.523438 328.515625 93.628906 C 330.835938 91.902344 333.820312 92.253906 336.039062 93.96875 C 337.121094 94.804688 337.921875 95.863281 338.542969 97.03125 C 338.703125 95.625 338.996094 94.234375 339.414062 92.882812 C 340.261719 90.167969 341.597656 87.296875 343.597656 85.238281 C 345.429688 83.351562 348.289062 82.523438 350.332031 84.597656 C 352.199219 86.496094 352.609375 89.636719 352.707031 92.167969 C 352.789062 94.382812 352.484375 96.585938 351.84375 98.691406 C 353.375 97.300781 354.8125 95.789062 356.472656 94.542969 C 358.726562 92.851562 361.707031 91.507812 364.578125 92.210938 C 370.859375 93.746094 367.460938 101.84375 365.015625 105.191406 C 364.285156 106.191406 363.46875 107.117188 362.570312 107.953125 C 364.140625 107.824219 365.707031 108 367.210938 108.734375 C 370.171875 110.183594 371.328125 113.488281 370.058594 116.507812 C 368.820312 119.460938 365.695312 121.289062 362.695312 121.992188 Z M 362.695312 121.992188 "/><path style=" stroke:none;fill-rule:nonzero;fill:#000000;fill-opacity:1;" d="M 362.695312 121.996094 C 359.808594 122.671875 356.804688 122.394531 354.09375 121.265625 C 353.695312 122.9375 352.890625 124.527344 351.597656 125.691406 C 350.363281 126.800781 348.765625 127.582031 347.144531 128.027344 C 347.359375 129.8125 346.457031 131.5625 344.902344 132.628906 C 342.859375 134.03125 340.25 133.726562 337.988281 132.960938 C 335.25 137.996094 331.335938 142.460938 326.964844 146.121094 C 323.007812 149.433594 318.28125 152.589844 313.039062 153.207031 C 311.769531 153.355469 311.78125 151.367188 313.039062 151.21875 C 317.886719 150.652344 322.425781 147.414062 326.023438 144.324219 C 330.015625 140.894531 333.578125 136.828125 336.136719 132.210938 C 333.914062 131.1875 331.863281 129.8125 330.074219 128.140625 C 330 128.074219 329.925781 128.003906 329.851562 127.933594 C 324.855469 135.78125 317.410156 142.003906 308.078125 143.753906 C 306.828125 143.988281 306.289062 142.070312 307.546875 141.835938 C 316.578125 140.144531 323.675781 134.128906 328.425781 126.476562 C 327.082031 124.972656 325.9375 123.195312 325.875 121.226562 C 325.808594 119.121094 327.355469 117.167969 329.289062 117.03125 C 328.515625 114.191406 328.785156 111.175781 330.15625 108.527344 C 326.378906 104.714844 323.277344 97.527344 328.515625 93.632812 C 330.835938 91.90625 333.820312 92.261719 336.039062 93.976562 C 337.121094 94.8125 337.921875 95.871094 338.542969 97.039062 C 338.703125 95.632812 338.996094 94.242188 339.414062 92.890625 C 340.261719 90.175781 341.597656 87.304688 343.597656 85.246094 C 345.429688 83.359375 348.289062 82.53125 350.332031 84.605469 C 352.199219 86.503906 352.609375 89.640625 352.707031 92.175781 C 352.789062 94.390625 352.484375 96.589844 351.84375 98.695312 C 353.375 97.304688 354.8125 95.796875 356.472656 94.550781 C 358.726562 92.859375 361.707031 91.511719 364.578125 92.214844 C 370.859375 93.753906 367.460938 101.851562 365.015625 105.195312 C 364.285156 106.195312 363.464844 107.125 362.570312 107.960938 C 364.140625 107.832031 365.707031 108.003906 367.210938 108.742188 C 370.171875 110.1875 371.328125 113.492188 370.058594 116.515625 C 368.820312 119.46875 365.695312 121.296875 362.691406 122 Z M 365.917969 110.324219 C 363.289062 109.261719 360.390625 110.273438 357.851562 111.109375 C 357.265625 111.304688 356.84375 110.960938 356.695312 110.507812 C 356.472656 110.085938 356.53125 109.558594 357.085938 109.292969 C 359.738281 108.050781 361.996094 106.121094 363.648438 103.699219 C 365.050781 101.640625 366.925781 98.386719 365.996094 95.800781 C 364.777344 92.414062 359.976562 94.507812 358.015625 95.867188 C 355.246094 97.785156 353.152344 100.511719 350.347656 102.40625 C 350.210938 102.5 350.074219 102.550781 349.945312 102.570312 C 349.234375 102.792969 348.296875 101.988281 348.75 101.105469 C 350.207031 98.238281 350.882812 95.039062 350.703125 91.832031 C 350.597656 89.886719 350.027344 84.753906 347 85.371094 C 345.574219 85.660156 344.527344 87.078125 343.78125 88.214844 C 342.914062 89.542969 342.1875 90.96875 341.648438 92.457031 C 340.570312 95.441406 340.1875 98.582031 340.46875 101.734375 C 340.507812 102.160156 340.3125 102.441406 340.03125 102.582031 C 339.558594 103.066406 338.566406 103.054688 338.335938 102.199219 C 337.726562 99.96875 337.03125 97.566406 335.296875 95.929688 C 333.679688 94.40625 331.3125 93.863281 329.496094 95.367188 C 325.375 98.769531 329.101562 104.902344 332.097656 107.632812 C 332.382812 107.890625 332.453125 108.203125 332.386719 108.484375 C 332.367188 108.597656 332.324219 108.714844 332.253906 108.835938 C 330.660156 111.46875 330.339844 114.765625 331.554688 117.621094 C 331.640625 117.828125 331.660156 118.03125 331.625 118.21875 C 331.640625 118.894531 330.917969 119.605469 330.132812 119.171875 C 329.125 118.617188 328.125 119.496094 327.914062 120.484375 C 327.65625 121.703125 328.246094 122.886719 328.921875 123.859375 C 329.359375 124.488281 329.84375 125.089844 330.371094 125.65625 C 330.402344 125.6875 330.433594 125.71875 330.460938 125.75 C 331.609375 126.976562 332.9375 128.054688 334.324219 128.953125 C 335.335938 129.609375 336.457031 130.257812 337.632812 130.753906 C 337.75 130.78125 337.863281 130.824219 337.96875 130.890625 C 339.046875 131.308594 340.167969 131.589844 341.285156 131.613281 C 342.453125 131.632812 343.585938 131.332031 344.398438 130.457031 C 345.039062 129.765625 345.492188 128.707031 345.097656 127.78125 C 345.046875 127.667969 345.023438 127.554688 345.011719 127.445312 C 344.886719 126.96875 345.070312 126.441406 345.691406 126.320312 C 345.753906 126.308594 345.816406 126.296875 345.875 126.285156 C 345.898438 126.277344 345.921875 126.273438 345.945312 126.269531 C 349.234375 125.5625 351.980469 123.417969 352.34375 119.875 C 352.425781 119.082031 353.25 118.78125 353.808594 118.992188 C 353.910156 119.007812 354.011719 119.042969 354.117188 119.09375 C 356.4375 120.273438 359.136719 120.675781 361.691406 120.175781 C 364.085938 119.710938 366.675781 118.511719 367.945312 116.328125 C 369.316406 113.980469 368.421875 111.332031 365.921875 110.320312 Z M 365.917969 110.324219 "/></g><path style=" stroke:none;fill-rule:nonzero;fill:#000000;fill-opacity:1;" d="M 348.652344 112.535156 C 345.699219 112.679688 342.957031 114.242188 341.332031 116.710938 C 340.632812 117.777344 338.914062 116.78125 339.617188 115.710938 C 341.640625 112.628906 344.972656 110.726562 348.65625 110.550781 C 349.933594 110.488281 349.929688 112.476562 348.65625 112.535156 Z M 348.652344 112.535156 "/><path style=" stroke:none;fill-rule:nonzero;fill:#000000;fill-opacity:1;" d="M 339.925781 126.71875 C 338.09375 126.011719 336.5 124.898438 335.289062 123.34375 C 334.511719 122.347656 335.910156 120.929688 336.691406 121.941406 C 337.683594 123.214844 338.941406 124.21875 340.453125 124.800781 C 341.632812 125.257812 341.121094 127.179688 339.925781 126.71875 Z M 339.925781 126.71875 "/><g clip-rule="nonzero" clip-path="url(#d806e2d543)"><path style=" stroke:none;fill-rule:nonzero;fill:#100f0d;fill-opacity:1;" d="M 75.242188 238.355469 L 229.265625 257.8125 L 229.445312 243.542969 L 231.316406 89.675781 L 123.910156 80.511719 L 75.242188 76.355469 Z M 310.699219 214.773438 L 309.671875 54.066406 L 262.679688 75.941406 L 233.96875 89.308594 L 231.917969 257.089844 Z M 153.535156 38.765625 L 78.910156 74.019531 L 124.238281 77.894531 L 232.417969 87.113281 L 284.949219 62.667969 L 306.007812 52.863281 Z M 72.601562 239.519531 L 72.601562 74.917969 C 72.601562 74.871094 72.609375 74.816406 72.621094 74.769531 C 72.621094 74.742188 72.621094 74.722656 72.628906 74.695312 C 72.648438 74.574219 72.683594 74.449219 72.742188 74.347656 C 72.75 74.320312 72.761719 74.300781 72.78125 74.28125 C 72.828125 74.179688 72.890625 74.09375 72.976562 74.007812 C 72.988281 74 72.996094 73.980469 73.015625 73.972656 C 73.015625 73.960938 73.023438 73.953125 73.023438 73.953125 C 73.117188 73.867188 73.222656 73.804688 73.324219 73.746094 C 73.335938 73.746094 73.34375 73.738281 73.351562 73.726562 L 152.726562 36.222656 C 152.941406 36.128906 153.175781 36.082031 153.410156 36.109375 L 311.101562 50.6875 C 311.132812 50.6875 311.140625 50.699219 311.160156 50.707031 C 311.273438 50.714844 311.375 50.746094 311.46875 50.78125 C 311.507812 50.800781 311.546875 50.820312 311.582031 50.839844 C 311.621094 50.855469 311.65625 50.867188 311.695312 50.886719 C 311.734375 50.914062 311.769531 50.949219 311.808594 50.988281 C 311.847656 51.015625 311.875 51.035156 311.902344 51.0625 C 311.996094 51.15625 312.082031 51.25 312.136719 51.363281 C 312.148438 51.371094 312.148438 51.382812 312.148438 51.382812 C 312.203125 51.496094 312.25 51.605469 312.269531 51.730469 C 312.277344 51.75 312.289062 51.757812 312.289062 51.777344 C 312.289062 51.804688 312.289062 51.824219 312.289062 51.851562 C 312.296875 51.898438 312.308594 51.945312 312.308594 51.992188 L 313.351562 215.550781 C 313.351562 216.039062 313.085938 216.488281 312.65625 216.714844 L 231.195312 260.46875 C 231.15625 260.488281 231.121094 260.496094 231.089844 260.515625 C 231.054688 260.535156 231.015625 260.542969 230.976562 260.554688 C 230.847656 260.601562 230.714844 260.628906 230.574219 260.628906 C 230.519531 260.628906 230.460938 260.628906 230.40625 260.617188 L 73.757812 240.824219 C 73.097656 240.738281 72.601562 240.175781 72.601562 239.519531 "/></g><g clip-rule="nonzero" clip-path="url(#899d210843)"><g clip-rule="nonzero" clip-path="url(#b12624213f)"><g clip-rule="nonzero" clip-path="url(#162185c099)"><g clip-rule="nonzero" clip-path="url(#d5ba3930db)"><path style=" stroke:none;fill-rule:nonzero;fill:#000000;fill-opacity:1;" d="M 139.101562 308.511719 C 138.320312 304.949219 135.875 300.417969 133.972656 298.375 C 134.945312 296.882812 134.699219 295.363281 133.53125 294.175781 C 131.871094 292.480469 129.425781 291.925781 127.125 291.75 C 127.113281 291.695312 127.105469 291.636719 127.089844 291.582031 C 127.027344 291.339844 120.980469 266.976562 134.453125 237.464844 C 135.527344 235.113281 134.5 232.335938 132.164062 231.261719 C 129.824219 230.183594 127.058594 231.21875 125.984375 233.570312 C 112.644531 262.789062 116.65625 287.339844 117.816406 292.828125 C 113.398438 294.507812 112.078125 297.664062 114.003906 299.855469 C 113.847656 300.011719 113.894531 299.953125 112.945312 301.675781 C 103.761719 292.703125 85.636719 296.246094 82.546875 313.546875 C 82.402344 313.875 82.550781 313.804688 82.226562 314.746094 C 81.929688 315.609375 81.558594 316.6875 82.003906 319 C 82.617188 322.195312 90.042969 326.449219 101.203125 327.808594 C 120.878906 330.210938 135.796875 322.710938 139.542969 316.429688 C 141.582031 313.011719 139.660156 309.425781 139.101562 308.511719 Z M 84.488281 316.160156 C 85.5 298.835938 104.796875 293.699219 113.386719 305.652344 C 115.980469 309.269531 116.882812 313.117188 116.898438 313.199219 C 117.226562 314.65625 119.425781 314.164062 119.097656 312.703125 C 118.511719 310.066406 116.816406 306.277344 114.523438 303.421875 C 114.636719 303.289062 114.558594 303.414062 115.769531 301.226562 C 117.757812 302.308594 120.234375 302.515625 122.496094 302.53125 C 123.984375 302.539062 124.003906 300.277344 122.511719 300.265625 C 116.484375 300.230469 112.53125 297.726562 118.082031 295.21875 C 115.292969 297.089844 118.621094 299.109375 123.957031 298.742188 C 129.507812 298.359375 132.472656 295.734375 129.015625 294.3125 C 130.316406 294.617188 132.480469 295.625 132.3125 296.636719 C 132.1875 297.367188 131.117188 298.246094 130.121094 298.738281 C 129.5625 299.011719 129.332031 299.691406 129.605469 300.253906 C 130.191406 301.449219 131.445312 300.683594 132.390625 299.988281 C 134.457031 302.242188 137.425781 308.46875 137.070312 310.988281 C 136.738281 313.34375 128.628906 322.203125 108.019531 322.472656 C 89.5625 322.714844 85.171875 317.238281 84.488281 316.160156 Z M 109.644531 325.976562 C 102.359375 326.101562 92.390625 324.753906 86.460938 320.804688 C 98.441406 327.710938 129.5 325.9375 138.132812 313.839844 C 137.3125 318.632812 125.457031 325.703125 109.644531 325.976562 Z M 109.644531 325.976562 "/></g></g></g></g><g clip-rule="nonzero" clip-path="url(#6be20a0091)"><g clip-rule="nonzero" clip-path="url(#23c526fde7)"><g clip-rule="nonzero" clip-path="url(#b8383e2055)"><g clip-rule="nonzero" clip-path="url(#36bd545a0e)"><path style=" stroke:none;fill-rule:nonzero;fill:#000000;fill-opacity:1;" d="M 192.683594 305.765625 C 191.859375 303.21875 190.292969 300.601562 188.1875 299.109375 C 189.132812 297.121094 188.523438 295.472656 186.90625 294.535156 C 185.214844 293.558594 182.835938 293.417969 180.335938 293.835938 C 180.007812 293.351562 177.492188 289.480469 175.46875 281.859375 C 173.460938 274.304688 171.542969 261.429688 173.792969 243.007812 C 174.105469 240.441406 172.289062 238.105469 169.734375 237.796875 C 167.179688 237.484375 164.855469 239.3125 164.542969 241.875 C 160.601562 274.160156 168.390625 291.761719 171.59375 297.417969 C 168.464844 299.632812 166.796875 302.425781 168.90625 304.671875 C 168.761719 305.238281 168.546875 306.042969 168.371094 306.71875 C 154.703125 300.285156 140.539062 313.625 142.429688 325.9375 C 142.597656 327.015625 141.917969 328.085938 143.351562 330.996094 C 145.011719 334.351562 161.078125 339.019531 174.023438 335.191406 C 190.632812 330.277344 195.214844 314.289062 195.402344 313.613281 C 196.480469 309.703125 193.644531 306.042969 192.683594 305.765625 Z M 144.710938 325.175781 C 144.183594 322.601562 144.90625 319.230469 146.660156 316.113281 C 151.449219 307.597656 162.007812 304.5 170.125 310.375 C 175.492188 314.257812 175.230469 317.550781 177.015625 316.507812 C 177.554688 316.195312 177.738281 315.503906 177.425781 314.960938 C 176.113281 312.679688 173.371094 309.710938 170.40625 307.835938 C 170.5 307.472656 170.621094 307.015625 170.742188 306.566406 C 171.027344 305.480469 170.578125 306 172.492188 306.234375 C 174.511719 306.480469 176.664062 306.03125 178.480469 305.539062 C 179.917969 305.148438 179.335938 302.964844 177.894531 303.355469 C 172 304.953125 167.65625 303.53125 172.285156 299.675781 C 170.078125 302.242188 173.875 303.269531 178.886719 301.496094 C 184.078125 299.664062 186.328125 296.324219 182.589844 295.878906 C 183.921875 295.820312 186.277344 296.210938 186.378906 297.234375 C 186.453125 297.96875 185.65625 299.105469 184.824219 299.84375 C 183.710938 300.839844 185.207031 302.53125 186.324219 301.535156 C 186.515625 301.363281 186.710938 301.171875 186.898438 300.964844 C 189.148438 302.550781 190.683594 305.949219 191.019531 308.546875 C 191.4375 311.808594 185.542969 326.726562 170.582031 329.960938 C 160.054688 332.238281 153.542969 330.761719 149.933594 329.121094 C 146.605469 327.609375 145.074219 325.683594 144.710938 325.175781 Z M 193.230469 313.007812 C 193.058594 313.636719 188.808594 328.457031 173.390625 333.019531 C 161.167969 336.632812 146.375 332.003906 145.371094 329.988281 C 142.746094 324.671875 147.757812 337.210938 171.050781 332.175781 C 183.664062 329.449219 191.679688 318.34375 193.132812 310.136719 C 193.410156 310.957031 193.527344 311.9375 193.230469 313.007812 Z M 193.230469 313.007812 "/></g></g></g></g><g clip-rule="nonzero" clip-path="url(#2bfcbf8bed)"><g clip-rule="nonzero" clip-path="url(#2aeeaa5d8b)"><g clip-rule="nonzero" clip-path="url(#5f7b39fb8d)"><g clip-rule="nonzero" clip-path="url(#20a0d3a40d)"><path style=" stroke:none;fill-rule:nonzero;fill:#000000;fill-opacity:1;" d="M 251.570312 312.667969 C 251.679688 309.019531 253.25 304.113281 254.738281 301.753906 C 253.507812 300.46875 253.472656 298.929688 254.398438 297.546875 C 255.722656 295.574219 258.023438 294.578125 260.25 293.984375 C 260.25 293.925781 260.25 293.867188 260.253906 293.808594 C 260.269531 293.558594 261.722656 268.5 243.035156 241.980469 C 241.546875 239.867188 242.042969 236.949219 244.144531 235.460938 C 246.246094 233.96875 249.15625 234.476562 250.644531 236.589844 C 269.140625 262.847656 269.726562 287.71875 269.597656 293.324219 C 274.25 294.160156 276.128906 297.019531 274.640625 299.527344 C 274.824219 299.652344 274.765625 299.605469 276.019531 301.121094 C 283.390625 290.613281 301.855469 290.75 308.082031 307.183594 C 308.285156 307.480469 308.128906 307.4375 308.621094 308.304688 C 309.070312 309.097656 309.632812 310.089844 309.621094 312.445312 C 309.609375 315.699219 303.09375 321.246094 292.375 324.644531 C 273.480469 330.632812 257.4375 326.011719 252.597656 320.527344 C 249.964844 317.546875 251.191406 313.664062 251.570312 312.667969 Z M 306.65625 310.113281 C 302.46875 293.269531 282.554688 291.78125 276.320312 305.113281 C 274.433594 309.144531 274.257812 313.09375 274.253906 313.179688 C 274.203125 314.671875 271.953125 314.589844 272.003906 313.09375 C 272.09375 310.394531 273.0625 306.359375 274.785156 303.128906 C 274.652344 303.019531 274.753906 303.128906 273.160156 301.203125 C 271.402344 302.632812 269.007812 303.292969 266.789062 303.722656 C 265.324219 304.007812 264.890625 301.789062 266.355469 301.5 C 272.273438 300.355469 275.695312 297.164062 269.777344 295.722656 C 272.863281 297.046875 269.964844 299.648438 264.652344 300.269531 C 259.128906 300.917969 255.730469 298.882812 258.863281 296.851562 C 257.640625 297.386719 255.699219 298.777344 256.054688 299.742188 C 256.308594 300.433594 257.527344 301.101562 258.59375 301.402344 C 259.195312 301.570312 259.546875 302.195312 259.378906 302.796875 C 259.023438 304.078125 257.652344 303.558594 256.59375 303.050781 C 254.980469 305.644531 253.207031 312.316406 254.023438 314.726562 C 254.78125 316.980469 264.386719 324.1875 284.691406 320.65625 C 302.878906 317.492188 306.183594 311.300781 306.65625 310.113281 Z M 283.742188 324.398438 C 290.925781 323.179688 300.472656 320.015625 305.574219 315.039062 C 295.070312 324.035156 264.222656 328.019531 253.503906 317.722656 C 255.191406 322.28125 268.148438 327.046875 283.742188 324.398438 Z M 283.742188 324.398438 "/></g></g></g></g><g clip-rule="nonzero" clip-path="url(#133931db83)"><g clip-rule="nonzero" clip-path="url(#37e02c0bdc)"><g clip-rule="nonzero" clip-path="url(#6a89936654)"><g clip-rule="nonzero" clip-path="url(#b004741a8b)"><path style=" stroke:none;fill-rule:nonzero;fill:#000000;fill-opacity:1;" d="M 198.402344 319.847656 C 198.742188 317.1875 199.796875 314.332031 201.589844 312.476562 C 200.296875 310.695312 200.589844 308.960938 202.007812 307.742188 C 203.488281 306.472656 205.800781 305.894531 208.335938 305.84375 C 208.570312 305.308594 210.328125 301.039062 210.910156 293.175781 C 211.492188 285.378906 211.003906 272.371094 205.394531 254.679688 C 204.613281 252.214844 205.96875 249.585938 208.421875 248.808594 C 210.875 248.03125 213.496094 249.398438 214.277344 251.863281 C 224.105469 282.867188 219.695312 301.601562 217.589844 307.75 C 221.070312 309.355469 223.226562 311.789062 221.566406 314.390625 C 221.8125 314.917969 222.171875 315.667969 222.472656 316.296875 C 234.71875 307.457031 251.101562 317.953125 251.511719 330.40625 C 251.546875 331.496094 252.414062 332.421875 251.535156 335.546875 C 250.527344 339.152344 235.597656 346.703125 222.164062 345.324219 C 204.9375 343.558594 197.484375 328.691406 197.175781 328.058594 C 195.394531 324.417969 197.503906 320.296875 198.402344 319.847656 Z M 249.132812 330.078125 C 249.171875 327.449219 247.839844 324.269531 245.542969 321.53125 C 239.265625 314.042969 228.316406 312.945312 221.421875 320.214844 C 216.863281 325.023438 217.730469 328.210938 215.777344 327.515625 C 215.191406 327.308594 214.882812 326.660156 215.089844 326.070312 C 215.964844 323.585938 218.109375 320.160156 220.675781 317.773438 C 220.519531 317.433594 220.3125 317.007812 220.113281 316.585938 C 219.632812 315.574219 220.171875 316 218.332031 316.585938 C 216.390625 317.199219 214.191406 317.152344 212.316406 317.003906 C 210.832031 316.886719 211 314.632812 212.488281 314.75 C 218.578125 315.234375 222.585938 313.035156 217.324219 310.097656 C 219.96875 312.214844 216.425781 313.921875 211.175781 313.105469 C 205.734375 312.261719 202.90625 309.394531 206.5 308.265625 C 205.179688 308.457031 202.9375 309.277344 203.023438 310.296875 C 203.085938 311.035156 204.082031 312.003906 205.03125 312.578125 C 206.308594 313.351562 205.152344 315.289062 203.871094 314.515625 C 203.648438 314.378906 203.421875 314.226562 203.199219 314.0625 C 201.285156 316.035156 200.402344 319.65625 200.550781 322.273438 C 200.738281 325.554688 209.28125 339.132812 224.585938 339.550781 C 235.347656 339.847656 241.476562 337.195312 244.722656 334.917969 C 247.71875 332.816406 248.867188 330.644531 249.132812 330.078125 Z M 199.195312 327.066406 C 199.484375 327.652344 206.390625 341.433594 222.386719 343.074219 C 235.066406 344.375 248.753906 337.097656 249.367188 334.929688 C 250.96875 329.222656 248.355469 342.46875 224.53125 341.8125 C 211.632812 341.460938 201.707031 332.023438 198.765625 324.226562 C 198.644531 325.085938 198.710938 326.070312 199.195312 327.066406 Z M 199.195312 327.066406 "/></g></g></g></g><g clip-rule="nonzero" clip-path="url(#4bf76f84af)"><g clip-rule="nonzero" clip-path="url(#4fa143ef23)"><path style=" stroke:none;fill-rule:nonzero;fill:#222222;fill-opacity:1;" d="M 90.578125 148.398438 L 107.769531 148.398438 L 107.769531 165.589844 L 90.578125 165.589844 Z M 90.578125 148.398438 "/></g></g><g clip-rule="nonzero" clip-path="url(#64770a8dad)"><g clip-rule="nonzero" clip-path="url(#cdd8201c73)"><path style=" stroke:none;fill-rule:nonzero;fill:#222222;fill-opacity:1;" d="M 196.292969 156.3125 L 213.484375 156.3125 L 213.484375 173.503906 L 196.292969 173.503906 Z M 196.292969 156.3125 "/></g></g><g clip-rule="nonzero" clip-path="url(#b5601c5166)"><g clip-rule="nonzero" clip-path="url(#b0aaca4c43)"><g clip-rule="nonzero" clip-path="url(#35a1323296)"><g clip-rule="nonzero" clip-path="url(#4668fea0dc)"><g clip-rule="nonzero" clip-path="url(#673143167e)"><g clip-rule="nonzero" clip-path="url(#c3e09d4a9a)"><path style=" stroke:none;fill-rule:nonzero;fill:#000000;fill-opacity:1;" d="M 107.859375 195.464844 L 186.359375 202.636719 L 190.863281 153.339844 L 112.363281 146.167969 Z M 107.859375 195.464844 "/></g></g></g></g></g></g></g></svg>